name C:\Users\u0101727\Documents\MyRepositories\upper-imu-dc\Results\main_tracking\Case_42\FLX01_linearAccelerations_bodyFrame.mot
datacolumns 4
datarows 117
range 0.51000000 1.67000000
endheader 
time	radius_imu_x	radius_imu_y	radius_imu_z	
          0.51000000	         -3.62827796	         10.25461075	         -0.22718173	
          0.52000000	         -2.35496478	         10.24545368	         -0.14449816	
          0.53000000	         -1.57903711	         10.26193247	         -0.11554041	
          0.54000000	         -1.03486397	         10.27210024	         -0.11667529	
          0.55000000	         -0.68173034	         10.27669008	         -0.13142322	
          0.56000000	         -0.46756059	         10.27914719	         -0.14815991	
          0.57000000	         -0.35859989	         10.28117392	         -0.16024599	
          0.58000000	         -0.32909974	         10.28410526	         -0.16431499	
          0.59000000	         -0.36024969	         10.28898791	         -0.15921995	
          0.60000000	         -0.43728102	         10.29653673	         -0.14543421	
          0.61000000	         -0.54898623	         10.30738937	         -0.12402973	
          0.62000000	         -0.68541091	         10.32207379	         -0.09688475	
          0.63000000	         -0.83926563	         10.34112969	         -0.06571490	
          0.64000000	         -1.00352186	         10.36490650	         -0.03242786	
          0.65000000	         -1.17277261	         10.39355748	          0.00126266	
          0.66000000	         -1.34248867	         10.42700337	          0.03376428	
          0.67000000	         -1.50920938	         10.46496677	          0.06372323	
          0.68000000	         -1.67023312	         10.50702860	          0.09008181	
          0.69000000	         -1.82345444	         10.55269569	          0.11214910	
          0.70000000	         -1.96725217	         10.60146413	          0.12964088	
          0.71000000	         -2.10049860	         10.65286632	          0.14268133	
          0.72000000	         -2.22264183	         10.70649503	          0.15176429	
          0.73000000	         -2.33377696	         10.76200915	          0.15768527	
          0.74000000	         -2.43463707	         10.81912123	          0.16145328	
          0.75000000	         -2.52649646	         10.87756960	          0.16419413	
          0.76000000	         -2.61101485	         10.93709509	          0.16706193	
          0.77000000	         -2.69005001	         10.99744557	          0.17116910	
          0.78000000	         -2.76545097	         11.05841065	          0.17753311	
          0.79000000	         -2.83885207	         11.11986941	          0.18703461	
          0.80000000	         -2.91150451	         11.18183432	          0.20038498	
          0.81000000	         -2.98416994	         11.24448426	          0.21810811	
          0.82000000	         -3.05707590	         11.30818190	          0.24054377	
          0.83000000	         -3.12991943	         11.37346428	          0.26787384	
          0.84000000	         -3.20190654	         11.44099592	          0.30016645	
          0.85000000	         -3.27182413	         11.51148781	          0.33742650	
          0.86000000	         -3.33814095	         11.58559456	          0.37963729	
          0.87000000	         -3.39913240	         11.66380039	          0.42677798	
          0.88000000	         -3.45302930	         11.74633169	          0.47882436	
          0.89000000	         -3.49817599	         11.83305401	          0.53568848	
          0.90000000	         -3.53318911	         11.92365289	          0.59731492	
          0.91000000	         -3.55691399	         12.01718704	          0.66299123	
          0.92000000	         -3.57160331	         12.11134290	          0.73397599	
          0.93000000	         -3.58000949	         12.20617379	          0.81510386	
          0.94000000	         -3.57212125	         12.30084387	          0.90356086	
          0.95000000	         -3.53749408	         12.39662438	          1.00066721	
          0.96000000	         -3.46704301	         12.49019046	          1.10391269	
          0.97000000	         -3.36464330	         12.57939517	          1.21853864	
          0.98000000	         -3.23164982	         12.66189297	          1.34436120	
          0.99000000	         -3.06844095	         12.73646021	          1.48043957	
          1.00000000	         -2.87602930	         12.80216366	          1.62620315	
          1.01000000	         -2.65617809	         12.85808434	          1.78108101	
          1.02000000	         -2.41138115	         12.90325358	          1.94445010	
          1.03000000	         -2.14468736	         12.93655128	          2.11552989	
          1.04000000	         -1.85946156	         12.95673456	          2.29333349	
          1.05000000	         -1.55920641	         12.96252503	          2.47666032	
          1.06000000	         -1.24745334	         12.95270685	          2.66412764	
          1.07000000	         -0.92765294	         12.92619988	          2.85423694	
          1.08000000	         -0.60303619	         12.88210044	          3.04547206	
          1.09000000	         -0.27649637	         12.81968266	          3.23641637	
          1.10000000	          0.04944588	         12.73835486	          3.42586618	
          1.11000000	          0.37258984	         12.63759105	          3.61291626	
          1.12000000	          0.69095952	         12.51687914	          3.79700109	
          1.13000000	          1.00271380	         12.37571884	          3.97788815	
          1.14000000	          1.30608885	         12.21367249	          4.15562970	
          1.15000000	          1.59938075	         12.03044708	          4.33048543	
          1.16000000	          1.88097466	         11.82598171	          4.50283355	
          1.17000000	          2.14941727	         11.60052260	          4.67308982	
          1.18000000	          2.40350218	         11.35467376	          4.84164466	
          1.19000000	          2.64233129	         11.08941494	          5.00881941	
          1.20000000	          2.86533526	         10.80608049	          5.17484129	
          1.21000000	          3.07224901	         10.50629365	          5.33983669	
          1.22000000	          3.26304376	         10.19186063	          5.50383876	
          1.23000000	          3.43782635	          9.86464815	          5.66680234	
          1.24000000	          3.59672800	          9.52648164	          5.82861841	
          1.25000000	          3.73981268	          9.17909463	          5.98912332	
          1.26000000	          3.86703405	          8.82413333	          6.14810395	
          1.27000000	          3.97825363	          8.46319734	          6.30530315	
          1.28000000	          4.07331236	          8.09789106	          6.46042755	
          1.29000000	          4.15212931	          7.72985896	          6.61315758	
          1.30000000	          4.21478115	          7.36078163	          6.76316032	
          1.31000000	          4.26152635	          6.99233222	          6.91010726	
          1.32000000	          4.29278704	          6.62612093	          7.05369712	
          1.33000000	          4.30912360	          6.26365670	          7.19367893	
          1.34000000	          4.31121412	          5.90633383	          7.32986897	
          1.35000000	          4.29982805	          5.55542939	          7.46216101	
          1.36000000	          4.27583037	          5.21211341	          7.59054415	
          1.37000000	          4.24012503	          4.87742637	          7.71512758	
          1.38000000	          4.19398782	          4.55241522	          7.83623200	
          1.39000000	          4.13779010	          4.23763101	          7.95437585	
          1.40000000	          4.07634716	          3.93532819	          8.07083147	
          1.41000000	          3.99049421	          3.61189018	          8.16575449	
          1.42000000	          3.93892652	          3.36260445	          8.30120714	
          1.43000000	          3.85673458	          3.11817840	          8.42694232	
          1.44000000	          3.76865534	          2.87085952	          8.54676376	
          1.45000000	          3.68586910	          2.70510263	          8.70655828	
          1.46000000	          3.59552819	          2.42721999	          8.76736156	
          1.47000000	          3.52551443	          2.19299607	          8.89135113	
          1.48000000	          3.42892362	          1.96821688	          9.01662931	
          1.49000000	          3.33541908	          1.75257244	          9.16496096	
          1.50000000	          3.30252221	          1.50659174	          9.31788324	
          1.51000000	          3.22466248	          1.37130692	          9.47765319	
          1.52000000	          3.07158561	          1.26486567	          9.63918646	
          1.53000000	          2.95373964	          1.05926665	          9.80132319	
          1.54000000	          2.81767456	          0.87038529	          9.96304916	
          1.55000000	          2.69807730	          0.68383305	         10.14156127	
          1.56000000	          2.57899964	          0.50660951	         10.32982662	
          1.57000000	          2.47099863	          0.27446908	         10.46338919	
          1.58000000	          2.28443805	          0.24023118	         10.69123363	
          1.59000000	          2.05511240	          0.25579020	         10.75102561	
          1.60000000	          1.83587457	          0.24727105	         10.78541841	
          1.61000000	          1.59169528	          0.23652660	         10.77357205	
          1.62000000	          1.34123328	          0.22084691	         10.73396947	
          1.63000000	          1.08515450	          0.20155806	         10.67186668	
          1.64000000	          0.82591252	          0.17889833	         10.59388039	
          1.65000000	          0.56383758	          0.15314084	         10.50449273	
          1.66000000	          0.29888897	          0.12427026	         10.40729256	
          1.67000000	          0.03074455	          0.09204575	         10.30493713	
